# xmcd CD database file
#
# Track frame offsets:
#	150
#	1136
#	12491
#	27303
#	44495
#	56536
#	70576
#	85807
#	105400
#	122470
#	139789
#	151922
#	176232
#
# Disc length: 2526 seconds
#
# Revision: 0
# Processed by: cddbd v1.5PL3 Copyright (c) Steve Scherf et al.
# Submitted via: CDex 1.51
#
DISCID=9d09dc0d
DTITLE=Mannheim Steamroller - Mannheim Steamroller Meets the Mouse
DYEAR=1998
DGENRE=New Age
TTITLE0=Intro
TTITLE1=Chim Chim Cher-Ee
TTITLE2=Zip-A-Dee-Doo-Dah
TTITLE3=Under the Sea
TTITLE4=Hakuna Matata
TTITLE5=Supercalifragilisticexpialidocious
TTITLE6=Go the Distance
TTITLE7=Ballad of Davy Crockett
TTITLE8=Heigh-Ho
TTITLE9=You've Got a Friend in Me
TTITLE10=When You Wish Upon a Star
TTITLE11=Reflection
TTITLE12=Mickey Mouse March
EXTD=YEAR: 1998
EXTT0=
EXTT1=
EXTT2=
EXTT3=
EXTT4=
EXTT5=
EXTT6=
EXTT7=
EXTT8=
EXTT9=
EXTT10=
EXTT11=
EXTT12=
PLAYORDER=
